<?xml version="1.0" encoding="UTF-8"?>
<!-- Marketplace icon for the Agda (scrbl) extension.
     Mark extracted from the official Agda logotype (design by Miëtek Bak),
     https://github.com/agda/agda/blob/master/doc/user-manual/agda.svg — BSD-3-Clause. -->
<svg width="256px" height="256px" viewBox="0 0 256 256" version="1.1" xmlns="http://www.w3.org/2000/svg">
  <rect x="0" y="0" width="256" height="256" rx="48" fill="#22272E"></rect>
  <g transform="translate(46, 64) scale(0.137)" fill="none" fill-rule="evenodd">
    <circle fill="#F5F5F5" cx="240" cy="270" r="27"></circle>
    <circle fill="#F5F5F5" cx="340" cy="270" r="27"></circle>
    <g stroke="#F5F5F5" stroke-width="44" stroke-linecap="round" stroke-linejoin="round">
      <path d="M1000,0 L600,400"></path>
      <path d="M1200,100 L1000,300"></path>
      <path d="M1200,0 L1000,200"></path>
      <path d="M500,0 L300,200"></path>
      <path d="M600,0 L400,200"></path>
      <path d="M400,0 L0,400 L200,400 L200,600 C200,820 380,1000 600,1000 C820,1000 1000,820 1000,600 L1000,400 L1200,200"></path>
    </g>
  </g>
</svg>
